<svg width="24" height="24" viewBox="0 0 24 24" fill="none" xmlns="http://www.w3.org/2000/svg">
<path fill-rule="evenodd" clip-rule="evenodd" d="M24 11.9995C24 18.6269 18.627 24 11.9995 24C5.37211 24 0 18.6269 0 11.9995C0 5.37203 5.37211 0 11.9995 0C13.7949 0 15.498 0.394469 17.0275 1.10138C16.9715 1.09583 16.9156 1.09401 16.8587 1.09401C16.051 1.09401 15.345 1.5314 14.9663 2.18329C14.0272 1.89886 13.0311 1.74682 11.9995 1.74682C6.33744 1.74682 1.7469 6.33736 1.7469 11.9995C1.7469 17.6626 6.33744 22.2522 11.9995 22.2522C17.6617 22.2522 22.2523 17.6626 22.2523 11.9995C22.2523 11.1377 22.1459 10.3011 21.9454 9.50182H21.9463C22.1412 9.39924 22.3194 9.26775 22.4742 9.11199C22.56 9.02615 22.6393 8.93294 22.7102 8.83409C22.7391 8.79399 22.7661 8.75389 22.7913 8.71188C22.9965 8.37798 23.115 7.98625 23.115 7.56568C23.115 7.53113 23.114 7.49666 23.1121 7.46211C23.6848 8.86202 24 10.3935 24 11.9995Z" fill="#FFFFFE"/>
<path fill-rule="evenodd" clip-rule="evenodd" d="M21.6955 12.0216C21.6955 17.3882 17.345 21.7395 11.9781 21.7395C6.61135 21.7395 2.26074 17.3882 2.26074 12.0216C2.26074 6.65503 6.61135 2.30469 11.9781 2.30469C12.9347 2.30469 13.8597 2.44268 14.7333 2.70184C14.6783 2.89392 14.6485 3.09718 14.6485 3.3069C14.6485 3.83277 14.8341 4.31574 15.1427 4.69335C14.187 4.3101 13.1213 4.10312 11.9781 4.10312C7.39261 4.10312 4.05842 7.43725 4.05842 12.0216C4.05842 16.6069 7.39261 19.941 11.9781 19.941C16.5637 19.941 19.8979 16.6069 19.8979 12.0216C19.8979 11.0203 19.7385 10.0786 19.4429 9.21895C19.8298 9.56674 20.3417 9.77746 20.9021 9.77746C21.0802 9.77746 21.2536 9.756 21.4195 9.71501C21.6004 10.4543 21.6955 11.2273 21.6955 12.0216Z" fill="#FFFFFE"/>
<path fill-rule="evenodd" clip-rule="evenodd" d="M19.0436 3.28304C19.0436 3.6518 18.952 3.99894 18.7919 4.30485L18.7845 4.3199L18.7835 4.32172C18.6974 4.47992 18.5936 4.62772 18.4747 4.75873L18.4729 4.76056C18.3531 4.89256 18.2165 5.00952 18.0677 5.1087C17.7187 5.34262 17.2995 5.4792 16.8475 5.4792C16.7755 5.4792 16.7053 5.47545 16.6352 5.46897H16.6342C16.0363 5.41095 15.5095 5.11426 15.1483 4.67452C14.8385 4.29554 14.6523 3.81082 14.6523 3.28304C14.6523 3.21288 14.6561 3.14272 14.6627 3.07439C14.6748 2.93781 14.701 2.80398 14.7375 2.6758V2.67488C14.7871 2.50081 14.8592 2.33614 14.948 2.18268L14.9489 2.18077L14.9592 2.1639C15.341 1.51924 16.0438 1.08789 16.8475 1.08789C16.9046 1.08789 16.9608 1.08972 17.0169 1.09529C17.6776 1.14492 18.2558 1.4874 18.6244 1.99265C18.8883 2.35484 19.0436 2.80115 19.0436 3.28304Z" fill="#FFFFFE"/>
<path fill-rule="evenodd" clip-rule="evenodd" d="M20 5.57536L19.9879 5.58096H19.987C19.8265 5.65695 19.6762 5.75238 19.5397 5.86452C19.3985 5.98037 19.2722 6.11383 19.1643 6.26121C19.1053 6.18711 19.0444 6.11383 18.9826 6.04063C18.6966 5.70232 18.3969 5.38813 18.0869 5.10087C18.2336 5.00264 18.3683 4.88679 18.4864 4.75605L18.4882 4.75424C18.6053 4.62448 18.7077 4.47808 18.7926 4.3214L18.7935 4.31959L18.8009 4.30469C19.1541 4.62077 19.4908 4.96551 19.8063 5.33815C19.8726 5.41596 19.9372 5.49566 20 5.57536Z" fill="#FFFFFE"/>
<path fill-rule="evenodd" clip-rule="evenodd" d="M23.1306 7.58582C23.1306 8.00777 23.0117 8.40079 22.8059 8.73579C22.7806 8.77793 22.7535 8.81816 22.7245 8.8584C22.6533 8.95848 22.5738 9.05208 22.4877 9.1372C22.3333 9.29257 22.1565 9.42357 21.9628 9.52557L21.9581 9.52831H21.9572C21.8 9.61252 21.6315 9.67711 21.4547 9.71925H21.4537C21.3097 9.75475 21.1609 9.77536 21.0074 9.78101C20.9831 9.78193 20.9587 9.78193 20.9345 9.78193C20.3721 9.78193 19.8584 9.57046 19.47 9.22141C19.0433 8.83961 18.7674 8.29322 18.7421 7.68125C18.7402 7.64941 18.7393 7.61757 18.7393 7.58582C18.7393 7.09829 18.8974 6.64915 19.1669 6.28515C19.2763 6.13635 19.4045 6.0016 19.5477 5.88464C19.6862 5.77143 19.8387 5.67508 20.0015 5.59836H20.0024L20.0147 5.5927C20.2954 5.46361 20.606 5.39062 20.9345 5.39062C21.4687 5.39062 21.9591 5.58148 22.3399 5.89961C22.7984 6.28049 23.0987 6.84566 23.1277 7.48191C23.1296 7.51658 23.1306 7.55116 23.1306 7.58582Z" fill="#FFFFFE"/>
</svg>
