<svg width="326" height="88" viewBox="0 0 326 88" fill="none" xmlns="http://www.w3.org/2000/svg">
<g id="Group">
<path id="Fill 1" fill-rule="evenodd" clip-rule="evenodd" d="M27.3877 0C32.6984 0 37.7814 2.13902 42.409 4.8123C42.9403 5.11803 42.9403 5.72927 42.6369 6.18743L38.5401 12.0693C38.1607 12.604 37.7054 12.6804 37.1744 12.2985C34.8984 10.6179 31.4845 9.09011 27.4635 9.09011C3.56572 9.09011 3.56572 46.673 27.4635 46.673C32.3949 46.673 35.4294 45.1453 37.2504 43.6175C37.7054 43.2357 38.2365 43.312 38.5401 43.7704L42.7127 49.5757C43.0161 50.0341 42.9403 50.6451 42.485 50.9506C38.3883 54.1591 33.9881 55.7632 27.3877 55.7632C9.10403 55.7632 0 41.7842 0 27.8816C0 13.9026 9.10403 0 27.3877 0Z" fill="white"/>
<path id="Fill 2" fill-rule="evenodd" clip-rule="evenodd" d="M100.804 3.13643C100.804 2.52373 101.179 2.14062 101.78 2.14062H102.907C103.433 2.14062 104.109 2.44697 104.485 2.83008L133.257 34.3117C133.632 34.6946 133.858 34.8479 134.158 34.8479C134.459 34.8479 134.684 34.4648 134.684 33.6988V3.13643C134.684 2.52373 135.059 2.14062 135.66 2.14062H142.722C143.323 2.14062 143.698 2.52373 143.698 3.13643V54.7632C143.698 55.3759 143.323 55.759 142.722 55.759H141.67C141.069 55.759 140.393 55.4527 140.018 54.9931L111.246 23.4349C110.945 23.0518 110.645 22.8987 110.344 22.8987C110.044 22.8987 109.818 23.2816 109.818 24.0476V54.7632C109.818 55.3759 109.443 55.759 108.842 55.759H101.78C101.179 55.759 100.804 55.3759 100.804 54.7632V3.13643Z" fill="white"/>
<path id="Fill 3" fill-rule="evenodd" clip-rule="evenodd" d="M150.131 3.13643C150.131 2.52373 150.507 2.14062 151.107 2.14062H152.234C152.76 2.14062 153.436 2.44697 153.812 2.83008L182.584 34.3117C182.959 34.6946 183.185 34.8479 183.485 34.8479C183.786 34.8479 184.011 34.4648 184.011 33.6988V3.13643C184.011 2.52373 184.387 2.14062 184.988 2.14062H192.049C192.65 2.14062 193.026 2.52373 193.026 3.13643V54.7632C193.026 55.3759 192.65 55.759 192.049 55.759H190.997C190.396 55.759 189.72 55.4527 189.345 54.9931L160.573 23.4349C160.272 23.0518 159.972 22.8987 159.671 22.8987C159.371 22.8987 159.146 23.2816 159.146 24.0476V54.7632C159.146 55.3759 158.77 55.759 158.169 55.759H151.107C150.507 55.759 150.131 55.3759 150.131 54.7632V3.13643Z" fill="white"/>
<path id="Fill 4" fill-rule="evenodd" clip-rule="evenodd" d="M197.315 3.13643C197.315 2.52373 197.694 2.14062 198.3 2.14062H230.645C231.253 2.14062 231.631 2.52373 231.631 3.13643V9.72393C231.631 10.3366 231.253 10.7195 230.645 10.7195H208.527C207.239 10.7195 206.406 11.5622 206.406 12.8644V22.5156C206.406 23.8178 207.239 24.6603 208.527 24.6603H225.191C225.797 24.6603 226.177 25.0434 226.177 25.6561V32.2436C226.177 32.8565 225.797 33.2394 225.191 33.2394H208.527C207.239 33.2394 206.406 34.0819 206.406 35.3841V45.0353C206.406 46.3374 207.239 47.1802 208.527 47.1802H230.645C231.253 47.1802 231.631 47.563 231.631 48.1757V54.7632C231.631 55.3759 231.253 55.759 230.645 55.759H198.3C197.694 55.759 197.315 55.3759 197.315 54.7632V3.13643Z" fill="white"/>
<path id="Fill 5" fill-rule="evenodd" clip-rule="evenodd" d="M261.163 0C266.474 0 271.557 2.13902 276.185 4.81252C276.716 5.11803 276.716 5.72927 276.412 6.18743L272.315 12.0693C271.936 12.604 271.481 12.6804 270.95 12.2985C268.674 10.6179 265.259 9.09011 261.239 9.09011C237.34 9.09011 237.34 46.673 261.239 46.673C266.171 46.673 269.205 45.1453 271.026 43.6175C271.481 43.2357 272.012 43.312 272.315 43.7704L276.488 49.5757C276.791 50.0341 276.716 50.6451 276.261 50.9506C272.163 54.1591 267.762 55.7632 261.163 55.7632C242.88 55.7632 233.775 41.7842 233.775 27.8816C233.775 13.9026 242.88 0 261.163 0Z" fill="white"/>
<path id="Fill 6" fill-rule="evenodd" clip-rule="evenodd" d="M280.96 9.72393V3.13643C280.96 2.52373 281.353 2.14062 281.978 2.14062H324.984C325.609 2.14062 325.999 2.52373 325.999 3.13643V9.72393C325.999 10.3366 325.609 10.7195 324.984 10.7195H310.361C309.032 10.7195 308.095 11.5622 308.095 12.8644V54.7632C308.095 55.3759 307.704 55.759 307.077 55.759H299.728C299.179 55.759 298.711 55.3759 298.711 54.7632V12.8644C298.711 11.5622 297.851 10.7195 296.521 10.7195H281.978C281.353 10.7195 280.96 10.3366 280.96 9.72393Z" fill="white"/>
<path id="Fill 7" fill-rule="evenodd" clip-rule="evenodd" d="M83.6445 75.0454V73.2009C83.6445 73.0291 83.7376 72.9219 83.8865 72.9219H94.1264C94.2751 72.9219 94.3682 73.0291 94.3682 73.2009V75.0454C94.3682 75.2168 94.2751 75.324 94.1264 75.324H90.6447C90.3282 75.324 90.1048 75.5599 90.1048 75.9245V87.656C90.1048 87.8278 90.0118 87.935 89.8628 87.935H88.1127C87.9826 87.935 87.8707 87.8278 87.8707 87.656V75.9245C87.8707 75.5599 87.6659 75.324 87.3494 75.324H83.8865C83.7376 75.324 83.6445 75.2168 83.6445 75.0454Z" fill="white"/>
<path id="Fill 8" fill-rule="evenodd" clip-rule="evenodd" d="M98.9019 72.9219H100.658C100.808 72.9219 100.901 73.0291 100.901 73.2009V78.6269C100.901 78.9915 101.106 79.2276 101.424 79.2276H106.618C106.935 79.2276 107.141 78.9915 107.141 78.6269V73.2009C107.141 73.0291 107.253 72.9219 107.384 72.9219H109.14C109.289 72.9219 109.383 73.0291 109.383 73.2009V87.656C109.383 87.8278 109.289 87.935 109.14 87.935H107.384C107.253 87.935 107.141 87.8278 107.141 87.656V82.2302C107.141 81.8654 106.935 81.6295 106.618 81.6295H101.424C101.106 81.6295 100.901 81.8654 100.901 82.2302V87.656C100.901 87.8278 100.808 87.935 100.658 87.935H98.9019C98.7526 87.935 98.6592 87.8278 98.6592 87.656V73.2009C98.6592 73.0291 98.7526 72.9219 98.9019 72.9219Z" fill="white"/>
<path id="Fill 9" fill-rule="evenodd" clip-rule="evenodd" d="M113.671 73.2009C113.671 73.0291 113.789 72.9219 113.979 72.9219H124.087C124.276 72.9219 124.395 73.0291 124.395 73.2009V75.0454C124.395 75.2168 124.276 75.324 124.087 75.324H117.175C116.772 75.324 116.511 75.5599 116.511 75.9245V78.6269C116.511 78.9915 116.772 79.2276 117.175 79.2276H122.383C122.572 79.2276 122.69 79.3348 122.69 79.5062V81.3507C122.69 81.5223 122.572 81.6295 122.383 81.6295H117.175C116.772 81.6295 116.511 81.8654 116.511 82.2302V84.9324C116.511 85.297 116.772 85.5329 117.175 85.5329H124.087C124.276 85.5329 124.395 85.6401 124.395 85.8119V87.656C124.395 87.8278 124.276 87.935 124.087 87.935H113.979C113.789 87.935 113.671 87.8278 113.671 87.656V73.2009Z" fill="white"/>
<path id="Fill 10" fill-rule="evenodd" clip-rule="evenodd" d="M135.433 78.9146C135.433 79.2791 135.659 79.5363 136.007 79.5363H137.502C140.616 79.5363 140.596 75.3541 137.502 75.3541H136.007C135.659 75.3541 135.433 75.6115 135.433 75.976V78.9146ZM132.974 87.6638V73.0369C132.974 72.9726 133.015 72.9297 133.076 72.9297H136.928C137.501 72.9297 137.85 72.9297 138.095 72.9513C142.971 73.4232 143.729 79.4499 140.165 81.3157C139.837 81.4872 139.775 81.766 139.96 82.0663L143.647 87.7069C143.75 87.8571 143.688 87.9428 143.524 87.9428H141.127C140.963 87.9428 140.8 87.8571 140.697 87.7069L137.317 82.4525C137.112 82.152 136.764 81.959 136.415 81.959H136.006C135.657 81.959 135.432 82.1949 135.432 82.5597V87.6638C135.432 87.8356 135.33 87.9428 135.166 87.9428H133.24C133.076 87.9428 132.974 87.8356 132.974 87.6638Z" fill="white"/>
<path id="Fill 11" fill-rule="evenodd" clip-rule="evenodd" d="M145.841 73.2009C145.841 73.0291 145.959 72.9219 146.149 72.9219H156.257C156.446 72.9219 156.565 73.0291 156.565 73.2009V75.0454C156.565 75.2168 156.446 75.324 156.257 75.324H149.344C148.942 75.324 148.682 75.5599 148.682 75.9245V78.6269C148.682 78.9915 148.942 79.2276 149.344 79.2276H154.552C154.742 79.2276 154.86 79.3348 154.86 79.5062V81.3507C154.86 81.5223 154.742 81.6295 154.552 81.6295H149.344C148.942 81.6295 148.682 81.8654 148.682 82.2302V84.9324C148.682 85.297 148.942 85.5329 149.344 85.5329H156.257C156.446 85.5329 156.565 85.6401 156.565 85.8119V87.656C156.565 87.8278 156.446 87.935 156.257 87.935H146.149C145.959 87.935 145.841 87.8278 145.841 87.656V73.2009Z" fill="white"/>
<path id="Fill 12" fill-rule="evenodd" clip-rule="evenodd" d="M158.71 87.656V73.2009C158.71 73.0291 158.828 72.9219 159.018 72.9219H161.243C161.432 72.9219 161.55 73.0291 161.55 73.2009V84.9324C161.55 85.297 161.811 85.5329 162.214 85.5329H169.126C169.315 85.5329 169.434 85.6401 169.434 85.8119V87.656C169.434 87.8278 169.315 87.935 169.126 87.935H159.018C158.828 87.935 158.71 87.8278 158.71 87.656Z" fill="white"/>
<g id="Group 16">
<mask id="mask0_1743_2055" style="mask-type:luminance" maskUnits="userSpaceOnUse" x="171" y="73" width="29" height="15">
<path id="Clip 14" fill-rule="evenodd" clip-rule="evenodd" d="M171.688 73.1328H199.39V87.926H171.688V73.1328Z" fill="white"/>
</mask>
<g mask="url(#mask0_1743_2055)">
<path id="Fill 13" fill-rule="evenodd" clip-rule="evenodd" d="M171.688 73.4041C171.688 73.2371 171.802 73.1328 171.984 73.1328H181.744C181.927 73.1328 182.041 73.2371 182.041 73.4041V75.1975C182.041 75.3641 181.927 75.4684 181.744 75.4684H175.07C174.681 75.4684 174.43 75.6978 174.43 76.0522V78.6798C174.43 79.0342 174.681 79.2638 175.07 79.2638H180.098C180.281 79.2638 180.395 79.3681 180.395 79.5347V81.3281C180.395 81.4949 180.281 81.5992 180.098 81.5992H175.07C174.681 81.5992 174.43 81.8286 174.43 82.1832V84.8105C174.43 85.165 174.681 85.3944 175.07 85.3944H181.744C181.927 85.3944 182.041 85.4987 182.041 85.6657V87.4587C182.041 87.6257 181.927 87.73 181.744 87.73H171.984C171.802 87.73 171.688 87.6257 171.688 87.4587V73.4041Z" fill="white"/>
<path id="Fill 15" fill-rule="evenodd" clip-rule="evenodd" d="M184.439 73.1328H186.702C186.862 73.1328 187.045 73.2371 187.113 73.383L191.547 82.1413C191.639 82.3081 191.73 82.3918 191.822 82.3918C191.913 82.3918 192.004 82.3081 192.096 82.1413L196.507 73.383C196.575 73.2371 196.758 73.1328 196.941 73.1328H199.181C199.364 73.1328 199.432 73.2371 199.364 73.383L192.142 87.7508C192.073 87.8759 191.959 87.9385 191.822 87.9385C191.684 87.9385 191.547 87.8759 191.479 87.7508L184.257 73.383C184.188 73.2371 184.257 73.1328 184.439 73.1328Z" fill="white"/>
</g>
</g>
<path id="Fill 17" fill-rule="evenodd" clip-rule="evenodd" d="M202.092 83.5039H205.429C205.759 83.5039 205.875 83.2925 205.74 82.9544L203.994 78.8098C203.916 78.6407 203.838 78.5561 203.761 78.5561C203.683 78.5561 203.606 78.6407 203.528 78.8098L201.762 82.9544C201.627 83.2925 201.762 83.5039 202.092 83.5039ZM197.337 87.6891L203.467 73.1202C203.506 73.0145 203.642 72.9297 203.758 72.9297C203.875 72.9297 203.991 73.0145 204.03 73.1202L210.161 87.6891C210.219 87.8371 210.161 87.9428 210.006 87.9428H208.104C207.949 87.9428 207.794 87.8371 207.736 87.6891L207.192 86.3991C207.057 86.082 206.746 85.8705 206.416 85.8705H201.081C200.751 85.8705 200.441 86.082 200.305 86.3991L199.762 87.6891C199.704 87.8371 199.548 87.9428 199.413 87.9428H197.492C197.337 87.9428 197.278 87.8371 197.337 87.6891Z" fill="white"/>
<path id="Fill 18" fill-rule="evenodd" clip-rule="evenodd" d="M214.475 73.2009C214.475 73.0291 214.569 72.9219 214.719 72.9219H215C215.132 72.9219 215.301 73.0079 215.395 73.1151L222.588 81.9298C222.682 82.037 222.738 82.0799 222.813 82.0799C222.888 82.0799 222.945 81.9727 222.945 81.7582V73.2009C222.945 73.0291 223.039 72.9219 223.189 72.9219H224.954C225.104 72.9219 225.198 73.0291 225.198 73.2009V87.656C225.198 87.8278 225.104 87.935 224.954 87.935H224.691C224.541 87.935 224.372 87.8493 224.278 87.7206L217.085 78.8842C217.01 78.777 216.935 78.7341 216.86 78.7341C216.785 78.7341 216.728 78.8414 216.728 79.056V87.656C216.728 87.8278 216.634 87.935 216.484 87.935H214.719C214.569 87.935 214.475 87.8278 214.475 87.656V73.2009Z" fill="white"/>
<path id="Fill 19" fill-rule="evenodd" clip-rule="evenodd" d="M231.631 75.0454V73.2009C231.631 73.0291 231.724 72.9219 231.873 72.9219H242.113C242.261 72.9219 242.355 73.0291 242.355 73.2009V75.0454C242.355 75.2168 242.261 75.324 242.113 75.324H238.631C238.315 75.324 238.091 75.5599 238.091 75.9245V87.656C238.091 87.8278 237.998 87.935 237.849 87.935H236.099C235.969 87.935 235.857 87.8278 235.857 87.656V75.9245C235.857 75.5599 235.652 75.324 235.336 75.324H231.873C231.724 75.324 231.631 75.2168 231.631 75.0454Z" fill="white"/>
<path id="Fill 20" fill-rule="evenodd" clip-rule="evenodd" d="M96.5134 28.9528C96.5134 44.9437 83.5492 57.9079 67.5583 57.9079C51.5674 57.9079 38.6055 44.9437 38.6055 28.9528C38.6055 12.9619 51.5674 0 67.5583 0C71.8902 0 75.9993 0.951892 79.6898 2.65765C79.5548 2.64414 79.4198 2.63964 79.2825 2.63964C77.3338 2.63964 75.6302 3.69505 74.7166 5.26804C72.4505 4.58168 70.0472 4.21488 67.5583 4.21488C53.8965 4.21488 42.8203 15.291 42.8203 28.9528C42.8203 42.6169 53.8965 53.6908 67.5583 53.6908C81.2201 53.6908 92.2962 42.6169 92.2962 28.9528C92.2962 26.8735 92.0397 24.855 91.5559 22.9264H91.5581C92.0284 22.6789 92.4583 22.3616 92.8318 21.9858C93.0388 21.7788 93.2301 21.5537 93.4011 21.3152C93.4709 21.2184 93.5362 21.1217 93.5969 21.0204C94.092 20.2148 94.3778 19.2696 94.3778 18.2547C94.3778 18.1715 94.3755 18.0882 94.371 18.0049C95.7528 21.3827 96.5134 25.0777 96.5134 28.9528Z" fill="white"/>
<path id="Fill 21" fill-rule="evenodd" clip-rule="evenodd" d="M90.0795 28.9562C90.0795 41.3931 79.9973 51.477 67.5598 51.477C55.1223 51.477 45.04 41.3931 45.04 28.9562C45.04 16.5193 55.1223 6.4375 67.5598 6.4375C69.7767 6.4375 71.9202 6.75728 73.9449 7.35795C73.8174 7.80305 73.7483 8.27408 73.7483 8.76024C73.7483 9.97886 74.1783 11.0981 74.8935 11.9732C72.6787 11.0851 70.2089 10.6055 67.5598 10.6055C56.933 10.6055 49.206 18.3321 49.206 28.9562C49.206 39.5824 56.933 47.309 67.5598 47.309C78.1865 47.309 85.9135 39.5824 85.9135 28.9562C85.9135 26.6356 85.544 24.4533 84.859 22.4611C85.7558 23.2671 86.942 23.7554 88.2407 23.7554C88.6534 23.7554 89.0553 23.7057 89.4399 23.6106C89.8591 25.324 90.0795 27.1153 90.0795 28.9562Z" fill="white"/>
<path id="Fill 22" fill-rule="evenodd" clip-rule="evenodd" d="M85.7891 7.50132C85.7891 8.40163 85.5652 9.24938 85.1744 9.99659C85.1699 10.008 85.163 10.0217 85.1562 10.0331C85.1562 10.0354 85.1539 10.0354 85.1539 10.0377C84.9436 10.4239 84.69 10.7849 84.3998 11.1048C84.3975 11.1071 84.3975 11.1071 84.3952 11.1094C84.1028 11.4316 83.7691 11.7172 83.4058 11.9594C82.5535 12.5307 81.5298 12.8643 80.4261 12.8643C80.2502 12.8643 80.0788 12.8552 79.9074 12.8392H79.9051C78.445 12.6975 77.1585 11.9731 76.2765 10.8992C75.5202 9.97374 75.0654 8.79009 75.0654 7.50132C75.0654 7.32995 75.0746 7.15857 75.0906 6.99176C75.1203 6.65815 75.1843 6.33138 75.2734 6.01833V6.01605C75.3945 5.59103 75.5704 5.18887 75.7875 4.81412C75.7875 4.81183 75.7898 4.81183 75.7898 4.80955C75.7989 4.79584 75.8058 4.78213 75.8149 4.76842C76.7472 3.19403 78.4633 2.14062 80.4261 2.14062C80.5655 2.14062 80.7026 2.1452 80.8397 2.15891C82.453 2.28001 83.8651 3.11634 84.7654 4.35026C85.4098 5.23457 85.7891 6.32453 85.7891 7.50132Z" fill="white"/>
<path id="Fill 23" fill-rule="evenodd" clip-rule="evenodd" d="M87.934 13.5124C87.9257 13.5164 87.9154 13.5205 87.9071 13.5246H87.905C87.5452 13.6912 87.2081 13.9005 86.902 14.1464C86.5855 14.4004 86.3022 14.693 86.0602 15.016C85.9278 14.8535 85.7913 14.693 85.6528 14.5324C85.0116 13.7908 84.3395 13.1019 83.6445 12.472C83.9734 12.2566 84.2753 12.0026 84.5401 11.7161C84.5421 11.7141 84.5421 11.7141 84.5442 11.7121C84.8069 11.4276 85.0364 11.1065 85.2267 10.7631C85.2267 10.7611 85.2288 10.7611 85.2288 10.7591C85.235 10.7489 85.2412 10.7367 85.2453 10.7266C86.0375 11.4195 86.7924 12.1754 87.4997 12.9922C87.6486 13.1629 87.7934 13.3376 87.934 13.5124Z" fill="white"/>
<path id="Fill 24" fill-rule="evenodd" clip-rule="evenodd" d="M94.3682 18.2279C94.3682 19.2584 94.078 20.2182 93.5753 21.0362C93.5136 21.139 93.4473 21.2373 93.3765 21.3355C93.2028 21.58 93.0086 21.8085 92.7984 22.0165C92.4214 22.3958 91.9895 22.7157 91.5165 22.9648C91.5119 22.9671 91.5096 22.9693 91.5051 22.9716H91.5028C91.1189 23.1773 90.7076 23.3349 90.2757 23.4378H90.2734C89.9215 23.5246 89.5582 23.5749 89.1835 23.5886C89.1241 23.5909 89.0646 23.5909 89.0052 23.5909C87.6319 23.5909 86.3774 23.0745 85.4291 22.2221C84.3872 21.2898 83.7131 19.9554 83.6514 18.461C83.6468 18.3833 83.6445 18.3056 83.6445 18.2279C83.6445 17.0374 84.0307 15.9406 84.6888 15.0517C84.9561 14.6884 85.2692 14.3593 85.6188 14.0737C85.957 13.7972 86.3295 13.5618 86.727 13.3745H86.7293C86.7385 13.3699 86.7499 13.3653 86.759 13.3608C87.4445 13.0454 88.2032 12.8672 89.0052 12.8672C90.31 12.8672 91.5073 13.3333 92.4374 14.1102C93.557 15.0403 94.2905 16.4204 94.3614 17.9742C94.3659 18.0588 94.3682 18.1433 94.3682 18.2279Z" fill="white"/>
</g>
</svg>
