<?xml version="1.0" encoding="UTF-8"?>
<svg width="1470px" height="395px" viewBox="0 0 1470 395" version="1.1" xmlns="http://www.w3.org/2000/svg" xmlns:xlink="http://www.w3.org/1999/xlink">
    <!-- Generator: Sketch 54.1 (76490) - https://sketchapp.com -->
    <title>Group</title>
    <desc>Created with Sketch.</desc>
    <g id="Logo" stroke="none" stroke-width="1" fill="none" fill-rule="evenodd">
        <g id="Artboard-Copy-13" transform="translate(-225.000000, -763.000000)" fill="#FFFFFF">
            <g id="Group" transform="translate(225.000000, 763.000000)">
                <path d="M126.457,0 C150.978,0 174.448,9.809 195.815,22.068 C198.268,23.47 198.268,26.273 196.867,28.374 L177.951,55.347 C176.199,57.799 174.097,58.149 171.645,56.398 C161.136,48.691 145.373,41.685 126.807,41.685 C16.464,41.685 16.464,214.031 126.807,214.031 C149.577,214.031 163.588,207.025 171.996,200.019 C174.097,198.268 176.549,198.618 177.951,200.72 L197.217,227.342 C198.618,229.444 198.268,232.246 196.166,233.647 C177.25,248.36 156.933,255.716 126.457,255.716 C42.036,255.716 0,191.612 0,127.858 C0,63.754 42.036,0 126.457,0" id="Fill-1"></path>
                <path d="M448.786,9.808 C448.786,7.006 450.538,5.254 453.34,5.254 L458.594,5.254 C461.046,5.254 464.199,6.655 465.951,8.407 L600.114,152.379 C601.865,154.13 602.917,154.831 604.317,154.831 C605.719,154.831 606.77,153.079 606.77,149.576 L606.77,9.808 C606.77,7.006 608.521,5.254 611.323,5.254 L644.251,5.254 C647.054,5.254 648.805,7.006 648.805,9.808 L648.805,245.908 C648.805,248.71 647.054,250.462 644.251,250.462 L639.347,250.462 C636.545,250.462 633.392,249.061 631.641,246.959 L497.477,102.637 C496.076,100.885 494.675,100.185 493.273,100.185 C491.873,100.185 490.822,101.936 490.822,105.439 L490.822,245.908 C490.822,248.71 489.07,250.462 486.268,250.462 L453.34,250.462 C450.538,250.462 448.786,248.71 448.786,245.908 L448.786,9.808" id="Fill-2"></path>
                <path d="M667.169,9.808 C667.169,7.006 668.921,5.254 671.723,5.254 L676.978,5.254 C679.43,5.254 682.583,6.655 684.334,8.407 L818.497,152.379 C820.249,154.13 821.299,154.831 822.701,154.831 C824.102,154.831 825.153,153.079 825.153,149.576 L825.153,9.808 C825.153,7.006 826.904,5.254 829.707,5.254 L862.634,5.254 C865.437,5.254 867.188,7.006 867.188,9.808 L867.188,245.908 C867.188,248.71 865.437,250.462 862.634,250.462 L857.73,250.462 C854.928,250.462 851.775,249.061 850.024,246.959 L715.86,102.637 C714.459,100.885 713.058,100.185 711.657,100.185 C710.256,100.185 709.205,101.936 709.205,105.439 L709.205,245.908 C709.205,248.71 707.454,250.462 704.651,250.462 L671.723,250.462 C668.921,250.462 667.169,248.71 667.169,245.908 L667.169,9.808" id="Fill-3"></path>
                <path d="M884.502,9.808 C884.502,7.006 886.254,5.254 889.056,5.254 L1038.63,5.254 C1041.44,5.254 1043.19,7.006 1043.19,9.808 L1043.19,39.934 C1043.19,42.736 1041.44,44.487 1038.63,44.487 L936.346,44.487 C930.391,44.487 926.539,48.341 926.539,54.296 L926.539,98.433 C926.539,104.388 930.391,108.241 936.346,108.241 L1013.41,108.241 C1016.21,108.241 1017.97,109.993 1017.97,112.795 L1017.97,142.921 C1017.97,145.724 1016.21,147.475 1013.41,147.475 L936.346,147.475 C930.391,147.475 926.539,151.328 926.539,157.283 L926.539,201.42 C926.539,207.375 930.391,211.229 936.346,211.229 L1038.63,211.229 C1041.44,211.229 1043.19,212.98 1043.19,215.782 L1043.19,245.908 C1043.19,248.71 1041.44,250.462 1038.63,250.462 L889.056,250.462 C886.254,250.462 884.502,248.71 884.502,245.908 L884.502,9.808" id="Fill-4"></path>
                <path d="M1174.69,0 C1199.21,0 1222.68,9.809 1244.05,22.069 C1246.5,23.47 1246.5,26.273 1245.1,28.374 L1226.18,55.347 C1224.43,57.799 1222.33,58.149 1219.88,56.398 C1209.37,48.691 1193.6,41.685 1175.04,41.685 C1064.69,41.685 1064.69,214.031 1175.04,214.031 C1197.81,214.031 1211.82,207.025 1220.23,200.019 C1222.33,198.268 1224.78,198.618 1226.18,200.72 L1245.45,227.342 C1246.85,229.444 1246.5,232.246 1244.4,233.647 C1225.48,248.36 1205.16,255.716 1174.69,255.716 C1090.27,255.716 1048.23,191.612 1048.23,127.858 C1048.23,63.754 1090.27,0 1174.69,0" id="Fill-5"></path>
                <path d="M1267.82,39.934 L1267.82,9.808 C1267.82,7.006 1269.58,5.254 1272.38,5.254 L1465.04,5.254 C1467.84,5.254 1469.59,7.006 1469.59,9.808 L1469.59,39.934 C1469.59,42.736 1467.84,44.487 1465.04,44.487 L1399.53,44.487 C1393.58,44.487 1389.38,48.341 1389.38,54.296 L1389.38,245.908 C1389.38,248.71 1387.63,250.462 1384.82,250.462 L1351.9,250.462 C1349.44,250.462 1347.34,248.71 1347.34,245.908 L1347.34,54.296 C1347.34,48.341 1343.49,44.487 1337.53,44.487 L1272.38,44.487 C1269.58,44.487 1267.82,42.736 1267.82,39.934" id="Fill-6"></path>
                <path d="M371.382,333.723 L371.382,325.122 C371.382,324.321 371.882,323.821 372.682,323.821 L427.686,323.821 C428.485,323.821 428.985,324.321 428.985,325.122 L428.985,333.723 C428.985,334.522 428.485,335.022 427.686,335.022 L408.984,335.022 C407.284,335.022 406.084,336.122 406.084,337.822 L406.084,392.525 C406.084,393.326 405.584,393.826 404.784,393.826 L395.383,393.826 C394.684,393.826 394.083,393.326 394.083,392.525 L394.083,337.822 C394.083,336.122 392.983,335.022 391.283,335.022 L372.682,335.022 C371.882,335.022 371.382,334.522 371.382,333.723" id="Fill-7"></path>
                <path d="M441.481,323.821 L450.882,323.821 C451.682,323.821 452.182,324.321 452.182,325.122 L452.182,350.423 C452.182,352.123 453.282,353.224 454.982,353.224 L482.784,353.224 C484.484,353.224 485.584,352.123 485.584,350.423 L485.584,325.122 C485.584,324.321 486.184,323.821 486.884,323.821 L496.285,323.821 C497.085,323.821 497.585,324.321 497.585,325.122 L497.585,392.525 C497.585,393.326 497.085,393.826 496.285,393.826 L486.884,393.826 C486.184,393.826 485.584,393.326 485.584,392.525 L485.584,367.225 C485.584,365.524 484.484,364.424 482.784,364.424 L454.982,364.424 C453.282,364.424 452.182,365.524 452.182,367.225 L452.182,392.525 C452.182,393.326 451.682,393.826 450.882,393.826 L441.481,393.826 C440.682,393.826 440.182,393.326 440.182,392.525 L440.182,325.122 C440.182,324.321 440.682,323.821 441.481,323.821" id="Fill-8"></path>
                <path d="M512.782,325.122 C512.782,324.321 513.282,323.821 514.082,323.821 L556.784,323.821 C557.584,323.821 558.084,324.321 558.084,325.122 L558.084,333.723 C558.084,334.522 557.584,335.022 556.784,335.022 L527.583,335.022 C525.882,335.022 524.782,336.122 524.782,337.822 L524.782,350.423 C524.782,352.123 525.882,353.224 527.583,353.224 L549.584,353.224 C550.384,353.224 550.884,353.724 550.884,354.523 L550.884,363.124 C550.884,363.924 550.384,364.424 549.584,364.424 L527.583,364.424 C525.882,364.424 524.782,365.524 524.782,367.225 L524.782,379.825 C524.782,381.525 525.882,382.625 527.583,382.625 L556.784,382.625 C557.584,382.625 558.084,383.125 558.084,383.926 L558.084,392.525 C558.084,393.326 557.584,393.826 556.784,393.826 L514.082,393.826 C513.282,393.826 512.782,393.326 512.782,392.525 L512.782,325.122" id="Fill-9"></path>
                <path d="M607.48,351.724 C607.48,353.424 608.58,354.623 610.28,354.623 L617.581,354.623 C632.782,354.623 632.682,335.122 617.581,335.122 L610.28,335.122 C608.58,335.122 607.48,336.322 607.48,338.022 L607.48,351.724 Z M595.479,392.525 L595.479,324.321 C595.479,324.021 595.679,323.821 595.979,323.821 L614.781,323.821 C617.581,323.821 619.281,323.821 620.481,323.922 C644.282,326.122 647.982,354.224 630.582,362.924 C628.981,363.724 628.681,365.024 629.582,366.424 L647.583,392.726 C648.083,393.426 647.783,393.826 646.982,393.826 L635.282,393.826 C634.482,393.826 633.682,393.426 633.182,392.726 L616.681,368.225 C615.681,366.824 613.98,365.924 612.28,365.924 L610.28,365.924 C608.58,365.924 607.48,367.024 607.48,368.725 L607.48,392.525 C607.48,393.326 606.98,393.826 606.18,393.826 L596.779,393.826 C595.979,393.826 595.479,393.326 595.479,392.525 L595.479,392.525 Z" id="Fill-10"></path>
                <path d="M659.479,325.122 C659.479,324.321 659.979,323.821 660.779,323.821 L703.482,323.821 C704.282,323.821 704.782,324.321 704.782,325.122 L704.782,333.723 C704.782,334.522 704.282,335.022 703.482,335.022 L674.28,335.022 C672.58,335.022 671.48,336.122 671.48,337.822 L671.48,350.423 C671.48,352.123 672.58,353.224 674.28,353.224 L696.282,353.224 C697.082,353.224 697.582,353.724 697.582,354.523 L697.582,363.124 C697.582,363.924 697.082,364.424 696.282,364.424 L674.28,364.424 C672.58,364.424 671.48,365.524 671.48,367.225 L671.48,379.825 C671.48,381.525 672.58,382.625 674.28,382.625 L703.482,382.625 C704.282,382.625 704.782,383.125 704.782,383.926 L704.782,392.525 C704.782,393.326 704.282,393.826 703.482,393.826 L660.779,393.826 C659.979,393.826 659.479,393.326 659.479,392.525 L659.479,325.122" id="Fill-11"></path>
                <path d="M717.979,392.525 L717.979,325.122 C717.979,324.321 718.479,323.821 719.279,323.821 L728.68,323.821 C729.479,323.821 729.979,324.321 729.979,325.122 L729.979,379.825 C729.979,381.525 731.08,382.625 732.78,382.625 L761.981,382.625 C762.782,382.625 763.282,383.125 763.282,383.926 L763.282,392.525 C763.282,393.326 762.782,393.826 761.981,393.826 L719.279,393.826 C718.479,393.826 717.979,393.326 717.979,392.525" id="Fill-12"></path>
                <path d="M774.478,325.122 C774.478,324.321 774.978,323.821 775.777,323.821 L818.48,323.821 C819.281,323.821 819.781,324.321 819.781,325.122 L819.781,333.723 C819.781,334.522 819.281,335.022 818.48,335.022 L789.278,335.022 C787.578,335.022 786.478,336.122 786.478,337.822 L786.478,350.423 C786.478,352.123 787.578,353.224 789.278,353.224 L811.28,353.224 C812.08,353.224 812.58,353.724 812.58,354.523 L812.58,363.124 C812.58,363.924 812.08,364.424 811.28,364.424 L789.278,364.424 C787.578,364.424 786.478,365.524 786.478,367.225 L786.478,379.825 C786.478,381.525 787.578,382.625 789.278,382.625 L818.48,382.625 C819.281,382.625 819.781,383.125 819.781,383.926 L819.781,392.525 C819.781,393.326 819.281,393.826 818.48,393.826 L775.777,393.826 C774.978,393.826 774.478,393.326 774.478,392.525 L774.478,325.122" id="Fill-13"></path>
                <path d="M830.276,323.821 L840.177,323.821 C840.876,323.821 841.677,324.321 841.977,325.021 L861.378,367.024 C861.778,367.824 862.178,368.225 862.579,368.225 C862.978,368.225 863.378,367.824 863.779,367.024 L883.08,325.021 C883.379,324.321 884.179,323.821 884.98,323.821 L894.78,323.821 C895.581,323.821 895.88,324.321 895.581,325.021 L863.978,393.926 C863.678,394.526 863.178,394.826 862.579,394.826 C861.978,394.826 861.378,394.526 861.079,393.926 L829.476,325.021 C829.176,324.321 829.476,323.821 830.276,323.821" id="Fill-15"></path>
                <path d="M916.378,372.824 L933.58,372.824 C935.28,372.824 935.879,371.824 935.18,370.225 L926.179,350.623 C925.779,349.823 925.379,349.423 924.979,349.423 C924.58,349.423 924.179,349.823 923.779,350.623 L914.678,370.225 C913.978,371.824 914.678,372.824 916.378,372.824 Z M891.877,392.626 L923.479,323.722 C923.679,323.222 924.379,322.821 924.979,322.821 C925.58,322.821 926.179,323.222 926.379,323.722 L957.981,392.626 C958.281,393.326 957.981,393.826 957.181,393.826 L947.38,393.826 C946.581,393.826 945.781,393.326 945.48,392.626 L942.68,386.525 C941.98,385.025 940.38,384.025 938.68,384.025 L911.178,384.025 C909.478,384.025 907.878,385.025 907.178,386.525 L904.377,392.626 C904.078,393.326 903.278,393.826 902.578,393.826 L892.677,393.826 C891.877,393.826 891.577,393.326 891.877,392.626 L891.877,392.626 Z" id="Fill-17"></path>
                <path d="M969.677,325.122 C969.677,324.321 970.177,323.821 970.977,323.821 L972.477,323.821 C973.177,323.821 974.078,324.222 974.578,324.722 L1012.88,365.824 C1013.38,366.324 1013.68,366.524 1014.08,366.524 C1014.48,366.524 1014.78,366.024 1014.78,365.024 L1014.78,325.122 C1014.78,324.321 1015.28,323.821 1016.08,323.821 L1025.48,323.821 C1026.28,323.821 1026.78,324.321 1026.78,325.122 L1026.78,392.525 C1026.78,393.326 1026.28,393.826 1025.48,393.826 L1024.08,393.826 C1023.28,393.826 1022.38,393.426 1021.88,392.826 L983.578,351.623 C983.178,351.123 982.778,350.923 982.377,350.923 C981.978,350.923 981.678,351.423 981.678,352.424 L981.678,392.525 C981.678,393.326 981.178,393.826 980.377,393.826 L970.977,393.826 C970.177,393.826 969.677,393.326 969.677,392.525 L969.677,325.122" id="Fill-18"></path>
                <path d="M1037.98,333.723 L1037.98,325.122 C1037.98,324.321 1038.48,323.821 1039.28,323.821 L1094.28,323.821 C1095.08,323.821 1095.58,324.321 1095.58,325.122 L1095.58,333.723 C1095.58,334.522 1095.08,335.022 1094.28,335.022 L1075.58,335.022 C1073.88,335.022 1072.68,336.122 1072.68,337.822 L1072.68,392.525 C1072.68,393.326 1072.18,393.826 1071.38,393.826 L1061.98,393.826 C1061.28,393.826 1060.68,393.326 1060.68,392.525 L1060.68,337.822 C1060.68,336.122 1059.58,335.022 1057.88,335.022 L1039.28,335.022 C1038.48,335.022 1037.98,334.522 1037.98,333.723" id="Fill-19"></path>
                <path d="M436.83,132.841 C436.83,203.901 379.22,261.511 308.16,261.511 C237.1,261.511 179.5,203.901 179.5,132.841 C179.5,61.781 237.1,4.181 308.16,4.181 C327.41,4.181 345.67,8.411 362.07,15.991 C361.47,15.931 360.87,15.911 360.26,15.911 C351.6,15.911 344.03,20.601 339.97,27.591 C329.9,24.541 319.22,22.911 308.16,22.911 C247.45,22.911 198.23,72.131 198.23,132.841 C198.23,193.561 247.45,242.771 308.16,242.771 C368.87,242.771 418.09,193.561 418.09,132.841 C418.09,123.601 416.95,114.631 414.8,106.061 L414.81,106.061 C416.9,104.961 418.81,103.551 420.47,101.881 C421.39,100.961 422.24,99.961 423,98.901 C423.31,98.471 423.6,98.041 423.87,97.591 C426.07,94.011 427.34,89.811 427.34,85.301 C427.34,84.931 427.33,84.561 427.31,84.191 C433.45,99.201 436.83,115.621 436.83,132.841" id="Fill-20"></path>
                <path d="M412.38,132.841 C412.38,190.401 365.72,237.071 308.16,237.071 C250.6,237.071 203.94,190.401 203.94,132.841 C203.94,75.281 250.6,28.621 308.16,28.621 C318.42,28.621 328.34,30.101 337.71,32.881 C337.12,34.941 336.8,37.121 336.8,39.371 C336.8,45.011 338.79,50.191 342.1,54.241 C331.85,50.131 320.42,47.911 308.16,47.911 C258.98,47.911 223.22,83.671 223.22,132.841 C223.22,182.021 258.98,217.781 308.16,217.781 C357.34,217.781 393.1,182.021 393.1,132.841 C393.1,122.101 391.39,112.001 388.22,102.781 C392.37,106.511 397.86,108.771 403.87,108.771 C405.78,108.771 407.64,108.541 409.42,108.101 C411.36,116.031 412.38,124.321 412.38,132.841" id="Fill-21"></path>
                <path d="M383.73,39.371 C383.73,43.311 382.75,47.021 381.04,50.291 C381.02,50.341 380.99,50.401 380.96,50.451 C380.96,50.461 380.95,50.461 380.95,50.471 C380.03,52.161 378.92,53.741 377.65,55.141 C377.64,55.151 377.64,55.151 377.63,55.161 C376.35,56.571 374.89,57.821 373.3,58.881 C369.57,61.381 365.09,62.841 360.26,62.841 C359.49,62.841 358.74,62.801 357.99,62.731 L357.98,62.731 C351.59,62.111 345.96,58.941 342.1,54.241 C338.79,50.191 336.8,45.011 336.8,39.371 C336.8,38.621 336.84,37.871 336.91,37.141 C337.04,35.681 337.32,34.251 337.71,32.881 L337.71,32.871 C338.24,31.011 339.01,29.251 339.96,27.611 C339.96,27.601 339.97,27.601 339.97,27.591 C340.01,27.531 340.04,27.471 340.08,27.411 C344.16,20.521 351.67,15.911 360.26,15.911 C360.87,15.911 361.47,15.931 362.07,15.991 C369.13,16.521 375.31,20.181 379.25,25.581 C382.07,29.451 383.73,34.221 383.73,39.371" id="Fill-22"></path>
                <path d="M394.04,64.001 C394,64.021 393.95,64.041 393.91,64.061 L393.9,64.061 C392.16,64.881 390.53,65.911 389.05,67.121 C387.52,68.371 386.15,69.811 384.98,71.401 C384.34,70.601 383.68,69.811 383.01,69.021 C379.91,65.371 376.66,61.981 373.3,58.881 C374.89,57.821 376.35,56.571 377.63,55.161 C377.64,55.151 377.64,55.151 377.65,55.141 C378.92,53.741 380.03,52.161 380.95,50.471 C380.95,50.461 380.96,50.461 380.96,50.451 C380.99,50.401 381.02,50.341 381.04,50.291 C384.87,53.701 388.52,57.421 391.94,61.441 C392.66,62.281 393.36,63.141 394.04,64.001" id="Fill-23"></path>
                <path d="M427.34,85.301 C427.34,89.811 426.07,94.011 423.87,97.591 C423.6,98.041 423.31,98.471 423,98.901 C422.24,99.971 421.39,100.971 420.47,101.881 C418.82,103.541 416.93,104.941 414.86,106.031 C414.84,106.041 414.83,106.051 414.81,106.061 L414.8,106.061 C413.12,106.961 411.32,107.651 409.43,108.101 L409.42,108.101 C407.88,108.481 406.29,108.701 404.65,108.761 C404.39,108.771 404.13,108.771 403.87,108.771 C397.86,108.771 392.37,106.511 388.22,102.781 C383.66,98.701 380.71,92.861 380.44,86.321 C380.42,85.981 380.41,85.641 380.41,85.301 C380.41,80.091 382.1,75.291 384.98,71.401 C386.15,69.811 387.52,68.371 389.05,67.121 C390.53,65.911 392.16,64.881 393.9,64.061 L393.91,64.061 C393.95,64.041 394,64.021 394.04,64.001 C397.04,62.621 400.36,61.841 403.87,61.841 C409.58,61.841 414.82,63.881 418.89,67.281 C423.79,71.351 427,77.391 427.31,84.191 C427.33,84.561 427.34,84.931 427.34,85.301" id="Fill-24"></path>
            </g>
        </g>
    </g>
</svg>