<svg width="22" height="20" viewBox="0 0 22 20" fill="none" xmlns="http://www.w3.org/2000/svg">
<path fill-rule="evenodd" clip-rule="evenodd" d="M6.35938 0C2.79069 0 0 3.03286 0 6.62101C0 8.48732 0.305448 10.0242 1.44411 11.6412C2.53055 13.1842 4.33719 14.7411 7.14047 16.7953L11 19.36L14.8592 16.7957C17.6627 14.7414 19.4695 13.1842 20.5559 11.6412C21.6945 10.0242 22 8.48732 22 6.62101C22 3.03287 19.2093 0 15.6407 0C13.85 0 12.3 0.713319 11 2.00401C9.70002 0.713319 8.14997 0 6.35938 0ZM6.35938 2.15111C4.15306 2.15111 2.2 4.07152 2.2 6.62101C2.2 7.21149 2.23418 7.73056 2.31938 8.20918C2.46209 9.011 2.74795 9.69957 3.25615 10.4214C4.11985 11.6479 5.66347 13.025 8.46072 15.0747L11 16.9394L13.5392 15.0747C16.3365 13.025 17.8802 11.6479 18.7439 10.4214C19.5555 9.26871 19.8 8.20057 19.8 6.62101C19.8 4.07152 17.847 2.15111 15.6407 2.15111C14.2814 2.15111 13.0351 2.78168 11.8836 4.3004C11.6762 4.57406 11.3484 4.73542 11 4.73542C10.6516 4.73542 10.3238 4.57406 10.1164 4.3004C8.96489 2.78168 7.71858 2.15111 6.35938 2.15111Z" fill="#2E7DE0"/>
<path d="M8.35982 1.32031L10.9998 3.52031L12.3198 2.20031L15.8398 1.32031L18.4798 1.76031L20.2398 3.52031L21.1198 7.48031L19.7998 10.1203L16.2798 14.5203L10.9998 18.4803L7.91982 15.8403L2.63982 11.8803L1.31982 7.92031V4.40031L3.07982 2.20031L5.71982 1.32031H8.35982Z" fill="#2E7DE0"/>
</svg>
