<?xml version="1.0" encoding="UTF-8"?>
<svg width="24px" height="24px" viewBox="0 0 24 24" version="1.1" xmlns="http://www.w3.org/2000/svg" xmlns:xlink="http://www.w3.org/1999/xlink">
    <!-- Generator: Sketch 54.1 (76490) - https://sketchapp.com -->
    <title>artiste_share</title>
    <desc>Created with Sketch.</desc>
    <g id="App_prototype" stroke="none" stroke-width="1" fill="none" fill-rule="evenodd">
        <g id="21_Artiste-Info" transform="translate(-315.000000, -1040.000000)" fill="#2E7DE0">
            <g id="Selection" transform="translate(20.000000, 1027.000000)">
                <g id="artiste_share" transform="translate(307.000000, 25.000000) scale(-1, 1) translate(-307.000000, -25.000000) translate(295.000000, 13.000000)">
                    <path d="M10.9339535,5.33581392 L10.9339535,1.95348832 C10.9344859,1.50660723 10.6684513,1.10247502 10.2577653,0.926293178 C9.8470794,0.750111335 9.37089849,0.835837505 9.04744185,1.14418599 L0.904185991,8.87999998 C0.682346939,9.09074674 0.556742863,9.38331742 0.556742863,9.68930231 C0.556742863,9.99528721 0.682346939,10.2878579 0.904185991,10.4986046 L9.04744185,18.2344186 C9.37089849,18.5427671 9.8470794,18.6284933 10.2577653,18.4523115 C10.6684513,18.2761296 10.9344859,17.8719974 10.9339535,17.4251163 L10.9339535,14.0427907 C17.2297675,14.0427907 20.6567442,18.3460465 22.8055814,23.0734884 C22.9206229,23.3125226 23.1880187,23.4375568 23.4452151,23.3725808 C23.7024115,23.3076049 23.8783381,23.0705735 23.8660466,22.8055814 C23.2074419,14.0204651 19.6353489,6.59162788 10.9339535,5.33581392 Z" id="35-Left_5"></path>
                </g>
            </g>
        </g>
    </g>
</svg>