<svg width="30" height="31" viewBox="0 0 30 31" fill="none" xmlns="http://www.w3.org/2000/svg">
<path d="M27.8713 22.3892C23.2256 20.1403 22.4852 16.6681 22.4522 16.4106C22.4124 16.0986 22.3671 15.8533 22.7113 15.536C23.0432 15.2294 24.5156 14.318 24.9242 14.0329C25.5994 13.5608 25.8968 13.0894 25.6776 12.5099C25.5243 12.109 25.151 11.958 24.7578 11.958C24.6338 11.9584 24.5102 11.9723 24.3892 11.9994C23.6472 12.1604 22.9267 12.5321 22.5097 12.6325C22.4596 12.6455 22.4082 12.6524 22.3564 12.6532C22.1341 12.6532 22.0498 12.5544 22.0713 12.2868C22.1234 11.4759 22.2338 9.8931 22.1058 8.41454C21.9303 6.38027 21.2741 5.37234 20.4961 4.48091C20.1198 4.04861 18.3722 2.19141 14.9996 2.19141C11.6271 2.19141 9.8818 4.04861 9.50775 4.47555C8.72746 5.36697 8.07211 6.37491 7.89812 8.40917C7.77012 9.88773 7.88509 11.4698 7.93261 12.2815C7.94794 12.536 7.86976 12.6479 7.64748 12.6479C7.59575 12.647 7.5443 12.64 7.49418 12.6272C7.07798 12.5268 6.35748 12.155 5.61551 11.994C5.49449 11.9669 5.37086 11.953 5.24683 11.9527C4.85209 11.9527 4.48034 12.106 4.32704 12.5045C4.10783 13.084 4.40369 13.5554 5.08127 14.0275C5.48981 14.3127 6.96224 15.2233 7.29413 15.5306C7.63751 15.848 7.59306 16.0932 7.5532 16.4052C7.52024 16.6666 6.77905 20.1388 2.13412 22.3838C1.86201 22.5157 1.39905 22.7947 2.21537 23.2454C3.49694 23.9536 4.35004 23.8777 5.01305 24.3046C5.57566 24.6672 5.243 25.449 5.65231 25.7311C6.15512 26.0783 7.64135 25.7066 9.5614 26.3404C11.171 26.8708 12.1491 28.3693 15.0035 28.3693C17.8579 28.3693 18.8643 26.864 20.4456 26.3404C22.3618 25.7066 23.8511 26.0783 24.3547 25.7311C24.7632 25.449 24.4313 24.6672 24.9939 24.3046C25.6569 23.8777 26.5093 23.9536 27.7916 23.2454C28.6064 22.8 28.1434 22.521 27.8713 22.3892Z" fill="white"/>
<path d="M29.8927 22.1241C29.6843 21.5569 29.2872 21.2534 28.835 21.0019C28.7499 20.9521 28.6717 20.9123 28.605 20.8816C28.4701 20.8119 28.3322 20.7444 28.195 20.6731C26.7854 19.9258 25.6847 18.983 24.9213 17.8655C24.7045 17.5509 24.5165 17.2174 24.3595 16.869C24.2943 16.6828 24.2974 16.577 24.3441 16.4804C24.3905 16.406 24.4518 16.3421 24.5243 16.2926C24.7665 16.1324 25.0163 15.9699 25.1857 15.8603C25.4877 15.6649 25.7269 15.51 25.8809 15.4004C26.4596 14.9957 26.8643 14.5657 27.1173 14.0851C27.2938 13.7531 27.3967 13.387 27.419 13.0116C27.4414 12.6362 27.3827 12.2605 27.2468 11.9098C26.8636 10.9011 25.9108 10.2749 24.7565 10.2749C24.513 10.2747 24.2702 10.3004 24.0322 10.3516C23.9685 10.3654 23.9049 10.3799 23.8428 10.396C23.8536 9.70618 23.8382 8.97802 23.7769 8.26135C23.5592 5.7419 22.677 4.42124 21.7572 3.36808C21.1682 2.70813 20.4744 2.14979 19.7038 1.71553C18.308 0.918379 16.7252 0.513672 14.9998 0.513672C13.2745 0.513672 11.6993 0.918379 10.302 1.71553C9.5295 2.14992 8.83432 2.70938 8.24477 3.37115C7.32499 4.4243 6.44276 5.74726 6.22507 8.26442C6.16375 8.98109 6.14842 9.71308 6.15839 10.3991C6.0963 10.383 6.03345 10.3684 5.96983 10.3546C5.73179 10.3035 5.48898 10.2778 5.2455 10.278C4.0904 10.278 3.13612 10.9042 2.75441 11.9129C2.61797 12.2637 2.55864 12.6397 2.58047 13.0155C2.60229 13.3912 2.70475 13.7579 2.88088 14.0905C3.13459 14.5711 3.53929 15.0011 4.11799 15.4058C4.27129 15.5131 4.5112 15.6679 4.8132 15.8657C4.97646 15.9715 5.21484 16.1263 5.44862 16.2811C5.53041 16.334 5.59993 16.4038 5.65251 16.4858C5.70156 16.5862 5.70309 16.6943 5.63028 16.8936C5.4754 17.2346 5.29046 17.5611 5.07764 17.8693C4.33108 18.9615 3.26259 19.8875 1.89824 20.6287C1.17544 21.0119 0.424278 21.2679 0.106951 22.1302C-0.132194 22.781 0.0241698 23.5214 0.631996 24.1453C0.855074 24.3782 1.11381 24.5741 1.39849 24.7256C1.99082 25.0511 2.62068 25.3031 3.27409 25.4759C3.40893 25.5107 3.53694 25.568 3.65273 25.6453C3.87425 25.8393 3.84282 26.1313 4.13792 26.559C4.28605 26.78 4.47428 26.9714 4.69286 27.1231C5.31218 27.5508 6.00816 27.5777 6.74552 27.606C7.4116 27.6313 8.16659 27.6604 9.02889 27.9448C9.38608 28.0629 9.75706 28.2913 10.1871 28.558C11.2195 29.1927 12.6329 30.0611 14.9983 30.0611C17.3637 30.0611 18.7871 29.1881 19.8272 28.5511C20.2541 28.289 20.6228 28.0628 20.97 27.9479C21.8323 27.6627 22.5873 27.6344 23.2534 27.6091C23.9908 27.5807 24.6867 27.5539 25.3061 27.1262C25.5649 26.9457 25.7806 26.7101 25.9377 26.4364C26.15 26.0753 26.1446 25.8232 26.3439 25.6469C26.4525 25.5732 26.5728 25.5183 26.6996 25.4844C27.3619 25.311 28.0003 25.0566 28.6004 24.7271C28.9029 24.5648 29.1751 24.3517 29.4053 24.097L29.4129 24.0878C29.9832 23.4777 30.1265 22.7587 29.8927 22.1241ZM27.7903 23.2539C26.5079 23.9621 25.6556 23.8862 24.9926 24.3132C24.4292 24.6757 24.7626 25.4576 24.3533 25.7396C23.8505 26.0868 22.3643 25.7151 20.4442 26.349C18.8607 26.8725 17.8504 28.3779 15.0021 28.3779C12.1539 28.3779 11.1674 26.8756 9.55777 26.3451C7.64155 25.7113 6.15226 26.083 5.64867 25.7358C5.24013 25.4537 5.57202 24.6719 5.00942 24.3093C4.34564 23.8824 3.4933 23.9583 2.21173 23.2539C1.39542 22.8032 1.85838 22.5242 2.13048 22.3924C6.77541 20.1435 7.51661 16.6713 7.54957 16.4137C7.58943 16.1018 7.63388 15.8565 7.29049 15.5392C6.9586 15.2326 5.48618 14.3212 5.07764 14.0361C4.40159 13.5639 4.1042 13.0925 4.32341 12.5131C4.47671 12.1122 4.85076 11.9612 5.2432 11.9612C5.36723 11.9616 5.49085 11.9755 5.61188 12.0026C6.35384 12.1636 7.07434 12.5353 7.49055 12.6357C7.54066 12.6486 7.59211 12.6555 7.64385 12.6564C7.86613 12.6564 7.94431 12.5445 7.92898 12.29C7.88146 11.4783 7.76648 9.89627 7.89449 8.41772C8.07001 6.38345 8.72536 5.37552 9.50412 4.48409C9.87816 4.05562 11.6357 2.19842 14.9968 2.19842C18.3578 2.19842 20.12 4.04796 20.494 4.47489C21.2736 5.36632 21.9297 6.37425 22.1037 8.40852C22.2317 9.88708 22.1213 11.4699 22.0692 12.2808C22.0516 12.5483 22.132 12.6472 22.3543 12.6472C22.4061 12.6464 22.4575 12.6394 22.5076 12.6265C22.9246 12.5261 23.6451 12.1544 24.3871 11.9934C24.5081 11.9663 24.6317 11.9524 24.7557 11.952C25.1505 11.952 25.5222 12.1053 25.6755 12.5039C25.8947 13.0833 25.5989 13.5547 24.9221 14.0269C24.5135 14.312 23.0411 15.2226 22.7092 15.53C22.365 15.8473 22.4103 16.0926 22.4501 16.4045C22.4831 16.6659 23.2235 20.1381 27.8692 22.3832C28.1436 22.5204 28.6066 22.7994 27.7903 23.2539Z" fill="black"/>
</svg>
