<?xml version="1.0" encoding="UTF-8"?>
<svg width="16px" height="16px" viewBox="0 0 16 16" version="1.1" xmlns="http://www.w3.org/2000/svg" xmlns:xlink="http://www.w3.org/1999/xlink">
    <!-- Generator: sketchtool 54.1 (76490) - https://sketchapp.com -->
    <title>CDBA097C-30CA-463C-9267-0A8B3190F034</title>
    <desc>Created with sketchtool.</desc>
    <defs>
        <linearGradient x1="50%" y1="99.6201867%" x2="50%" y2="2.15544409%" id="linearGradient-1">
            <stop stop-color="#FA233B" offset="0%"></stop>
            <stop stop-color="#FB5C74" offset="100%"></stop>
        </linearGradient>
    </defs>
    <g id="App_prototype" stroke="none" stroke-width="1" fill="none" fill-rule="evenodd">
        <g id="21_Artiste-Info" transform="translate(-256.000000, -1045.000000)">
            <g id="Group-7" transform="translate(20.000000, 904.000000)">
                <g id="fb-copy-13" transform="translate(228.000000, 129.000000)">
                    <g id="Apple_Music_Icon_RGB_sm_073120" transform="translate(8.000000, 12.000000)">
                        <path d="M16,5.00444444 C16,4.81333333 16,4.62222222 16,4.43111111 C16,4.27111111 15.9977778,4.10888889 15.9933333,3.94888889 C15.9844444,3.59777778 15.9622222,3.24444444 15.9,2.89777778 C15.8377778,2.54666667 15.7333333,2.21777778 15.5711111,1.89777778 C15.4111111,1.58444444 15.2022222,1.29555556 14.9533333,1.04666667 C14.7044444,0.797777778 14.4155556,0.588888889 14.1022222,0.428888889 C13.7822222,0.266666667 13.4555556,0.162222222 13.1044444,0.1 C12.7577778,0.0377777778 12.4044444,0.0177777778 12.0533333,0.00666666667 C11.8911111,0.00444444444 11.7288889,0.00222222222 11.5688889,0 C11.3777778,0 11.1866667,0 10.9955556,0 L5.00444444,0 C4.81333333,0 4.62222222,0 4.43111111,0 C4.27111111,0 4.10888889,0.00222222222 3.94888889,0.00666666667 C3.59777778,0.0155555556 3.24444444,0.0377777778 2.89777778,0.1 C2.54666667,0.164444444 2.21777778,0.266666667 1.9,0.431111111 C1.58444444,0.591111111 1.29777778,0.8 1.04888889,1.04888889 C0.8,1.29777778 0.588888889,1.58444444 0.428888889,1.9 C0.266666667,2.22 0.162222222,2.54666667 0.1,2.9 C0.0377777778,3.24666667 0.0177777778,3.6 0.00666666667,3.95111111 C0.00444444444,4.11111111 0.00222222222,4.27111111 0,4.43111111 C0,4.62222222 0,4.81333333 0,5.00444444 L0,10.9933333 C0,11.1844444 0,11.3755556 0,11.5666667 C0,11.7266667 0.00222222222,11.8888889 0.00666666667,12.0488889 C0.0155555556,12.4 0.0377777778,12.7533333 0.1,13.1 C0.162222222,13.4511111 0.266666667,13.78 0.428888889,14.1 C0.588888889,14.4133333 0.797777778,14.7022222 1.04666667,14.9511111 C1.29555556,15.2 1.58444444,15.4088889 1.89777778,15.5688889 C2.21777778,15.7311111 2.54444444,15.8355556 2.89555556,15.8977778 C3.24222222,15.96 3.59555556,15.98 3.94666667,15.9911111 C4.10666667,15.9955556 4.26888889,15.9977778 4.42888889,15.9977778 C4.62,16 4.81111111,15.9977778 5.00222222,15.9977778 L10.9911111,15.9977778 C11.1822222,15.9977778 11.3733333,15.9977778 11.5644444,15.9977778 C11.7244444,15.9977778 11.8866667,15.9955556 12.0466667,15.9911111 C12.3977778,15.9822222 12.7511111,15.96 13.0977778,15.8977778 C13.4488889,15.8355556 13.7777778,15.7311111 14.0955556,15.5688889 C14.4088889,15.4088889 14.6977778,15.2 14.9466667,14.9511111 C15.1955556,14.7022222 15.4044444,14.4155556 15.5644444,14.1 C15.7266667,13.78 15.8311111,13.4533333 15.8933333,13.1 C15.9555556,12.7533333 15.9755556,12.4 15.9866667,12.0488889 C15.9911111,11.8888889 15.9933333,11.7266667 15.9933333,11.5666667 C15.9955556,11.3755556 15.9933333,11.1844444 15.9933333,10.9933333 L16,5.00444444 L16,5.00444444 Z" id="Path" fill="url(#linearGradient-1)"></path>
                        <g id="Glyph_2_" transform="translate(3.111111, 2.222222)" fill="#FFFFFF">
                            <path d="M8.2,0.222222222 C8.16222222,0.226666667 7.81777778,0.286666667 7.77555556,0.295555556 L3.02,1.25555556 L3.01777778,1.25555556 C2.89333333,1.28222222 2.79555556,1.32666667 2.72222222,1.38888889 C2.63111111,1.46444444 2.58222222,1.57333333 2.56222222,1.69777778 C2.55777778,1.72444444 2.55111111,1.77777778 2.55111111,1.85777778 C2.55111111,1.85777778 2.55111111,6.71555556 2.55111111,7.80888889 C2.55111111,7.94888889 2.54,8.08222222 2.44666667,8.19777778 C2.35333333,8.31333333 2.23555556,8.34666667 2.1,8.37555556 C1.99555556,8.39555556 1.89333333,8.41777778 1.78888889,8.43777778 C1.39555556,8.51777778 1.14,8.57111111 0.908888889,8.66 C0.686666667,8.74666667 0.522222222,8.85555556 0.388888889,8.99333333 C0.126666667,9.26666667 0.02,9.64 0.0577777778,9.98888889 C0.0888888889,10.2866667 0.222222222,10.5711111 0.453333333,10.78 C0.608888889,10.9222222 0.802222222,11.0311111 1.03111111,11.0755556 C1.26888889,11.1222222 1.52,11.1066667 1.88888889,11.0311111 C2.08444444,10.9911111 2.26888889,10.9288889 2.44444444,10.8266667 C2.61777778,10.7244444 2.76666667,10.5888889 2.88222222,10.4222222 C2.99777778,10.2555556 3.07333333,10.0711111 3.11555556,9.87333333 C3.15777778,9.67111111 3.16888889,9.48666667 3.16888889,9.28444444 L3.16888889,4.12444444 C3.16888889,3.84888889 3.24666667,3.77555556 3.47111111,3.72 C3.47111111,3.72 7.42444444,2.92222222 7.60888889,2.88666667 C7.86666667,2.83777778 7.98666667,2.91111111 7.98666667,3.18 L7.98666667,6.70444444 C7.98666667,6.84444444 7.98444444,6.98444444 7.89111111,7.1 C7.79777778,7.21555556 7.68,7.24888889 7.54444444,7.27777778 C7.44,7.29777778 7.33777778,7.32 7.23333333,7.34 C6.84,7.42 6.58444444,7.47333333 6.35333333,7.56222222 C6.13111111,7.64888889 5.96666667,7.75777778 5.83333333,7.89555556 C5.57111111,8.16888889 5.45555556,8.54222222 5.49333333,8.89111111 C5.52444444,9.18888889 5.66666667,9.47333333 5.89777778,9.68222222 C6.05333333,9.82444444 6.24666667,9.92888889 6.47555556,9.97555556 C6.71333333,10.0222222 6.96444444,10.0066667 7.33333333,9.93111111 C7.52888889,9.89111111 7.71333333,9.83333333 7.88888889,9.72888889 C8.06222222,9.62666667 8.21111111,9.49111111 8.32666667,9.32444444 C8.44222222,9.15777778 8.51777778,8.97333333 8.56,8.77555556 C8.60222222,8.57333333 8.60444444,8.38888889 8.60444444,8.18666667 L8.60444444,0.642222222 C8.60222222,0.368888889 8.45777778,0.2 8.2,0.222222222 Z" id="Path"></path>
                        </g>
                    </g>
                </g>
            </g>
        </g>
    </g>
</svg>