<?xml version="1.0" encoding="UTF-8"?>
<svg width="20px" height="16px" viewBox="0 0 20 16" version="1.1" xmlns="http://www.w3.org/2000/svg" xmlns:xlink="http://www.w3.org/1999/xlink">
    <!-- Generator: Sketch 54.1 (76490) - https://sketchapp.com -->
    <title>mail</title>
    <desc>Created with Sketch.</desc>
    <g id="App_prototype" stroke="none" stroke-width="1" fill="none" fill-rule="evenodd">
        <g id="21_Artiste-Info" transform="translate(-189.000000, -581.000000)" fill="#2E7DE0" fill-rule="nonzero">
            <g id="Group-5" transform="translate(0.000000, 440.000000)">
                <g id="Group-12" transform="translate(20.000000, 138.000000)">
                    <g id="Group-9" transform="translate(169.000000, 2.000000)">
                        <path d="M18.2421875,1 L1.7578125,1 C0.789765625,1 0,1.78890625 0,2.7578125 L0,14.4765625 C0,15.4421875 0.78625,16.234375 1.7578125,16.234375 L18.2421875,16.234375 C19.2078125,16.234375 20,15.448125 20,14.4765625 L20,2.7578125 C20,1.7921875 19.21375,1 18.2421875,1 Z M17.9994531,2.171875 L10.0372656,10.1341016 L2.00621094,2.171875 L17.9994531,2.171875 Z M1.171875,14.2339063 L1.171875,2.99488281 L6.81558594,8.59019531 L1.171875,14.2339063 Z M2.00050781,15.0625 L7.64777344,9.41523437 L9.6265625,11.3770312 C9.855625,11.6041406 10.2252734,11.6033984 10.4533984,11.3752344 L12.3828125,9.44582031 L17.9994922,15.0625 L2.00050781,15.0625 Z M18.828125,14.2338672 L13.2114453,8.6171875 L18.828125,3.00046875 L18.828125,14.2338672 Z" id="mail"></path>
                    </g>
                </g>
            </g>
        </g>
    </g>
</svg>