<?xml version="1.0" encoding="UTF-8"?>
<svg width="16px" height="16px" viewBox="0 0 16 16" version="1.1" xmlns="http://www.w3.org/2000/svg" xmlns:xlink="http://www.w3.org/1999/xlink">
    <!-- Generator: Sketch 54.1 (76490) - https://sketchapp.com -->
    <title>2849835_phone_telephone_cell_call_communication_icon</title>
    <desc>Created with Sketch.</desc>
    <g id="App_prototype" stroke="none" stroke-width="1" fill="none" fill-rule="evenodd">
        <g id="2849835_phone_telephone_cell_call_communication_icon" fill="#FFFFFF" fill-rule="nonzero">
            <path d="M11.7014392,15.9626799 C11.0803745,15.9580731 10.4620284,15.8801135 9.85925558,15.7304218 C7.77766749,15.2281886 5.63414392,13.9541439 3.82451613,12.142928 C2.01488834,10.3317122 0.739255583,8.18779156 0.237022333,6.10818859 C-0.291811414,3.92059553 0.0853598015,2.04903226 1.297866,0.836526055 L1.64406948,0.490322581 C2.2980947,-0.162393653 3.3570914,-0.162393653 4.01111663,0.490322581 L6.00059553,2.47940447 C6.65374916,3.13324871 6.65374916,4.19260737 6.00059553,4.84645161 L4.82540943,6.02124069 C5.38878412,7.0098263 6.15503722,7.99920596 7.06064516,8.9048139 C7.9662531,9.81042184 8.9564268,10.577072 9.94461538,11.1404467 L11.1194045,9.96526055 C11.4332546,9.65129559 11.8589957,9.47490226 12.302928,9.47490226 C12.7468604,9.47490226 13.1726014,9.65129559 13.4864516,9.96526055 L15.4755335,11.9543424 C16.1288606,12.6079598 16.1288606,13.6673752 15.4755335,14.3209926 L15.128933,14.667196 C14.2741439,15.5235732 13.0910174,15.9626799 11.7014392,15.9626799 Z M2.82759305,1.191067 C2.69953696,1.19043171 2.57661652,1.24137429 2.48655087,1.33240695 L2.13995037,1.67861042 C1.2319603,2.5866005 0.96674938,4.06074442 1.39315136,5.82709677 C1.84456576,7.69826303 3.00665012,9.64248139 4.66501241,11.3004467 C6.32337469,12.9584119 8.26719603,14.1193052 10.1387593,14.5723077 C11.9055087,14.9987097 13.3788586,14.7334988 14.2868486,13.8255087 L14.6330521,13.4793052 C14.8214082,13.2907993 14.8214082,12.9853297 14.6330521,12.7968238 L12.6443672,10.8077419 C12.4558613,10.6193858 12.1503918,10.6193858 11.9618859,10.8077419 L10.4726551,12.2969727 C10.2892904,12.4804377 10.0082663,12.5241168 9.777866,12.4049628 C8.55702233,11.7736973 7.3262531,10.8545906 6.21856079,9.74689826 C5.11086849,8.63920596 4.1937469,7.40923077 3.5608933,6.1883871 C3.44163807,5.95807046 3.48515502,5.67705696 3.66848635,5.49359801 L5.15811414,4.00436725 C5.34647024,3.81586135 5.34647024,3.51039175 5.15811414,3.32188586 L3.16903226,1.33240695 C3.07869244,1.24154036 2.95572516,1.19063762 2.82759305,1.191067 Z" id="Shape"></path>
        </g>
    </g>
</svg>